# xmcd CD database file
#
# Track frame offsets:
#	150
#	9628
#	19196
#	32023
#	43838
#	53777
#	63689
#	77309
#	88996
#	106006
#	118665
#	133592
#
# Disc length: 1939 seconds
#
# Revision: 1
# Processed by: cddbd v1.5.2PL0 Copyright (c) Steve Scherf et al.
# Submitted via: CDex 1.70beta2
#
DISCID=9807910c
DTITLE=Willie Nelson - Collection
DYEAR=2002
DGENRE=Country
TTITLE0=One Step Beyond
TTITLE1=Building Herataches
TTITLE2=I Just Don't Understand
TTITLE3=Touch Me
TTITLE4=I Didn't Sleep A Wink
TTITLE5=Half A Man
TTITLE6=Undo The Right
TTITLE7=I Hope So
TTITLE8=I Let My Mind Wander
TTITLE9=Any Old Arms Won't Do
TTITLE10=And So Will You My Love
TTITLE11=End Of Understanding
EXTD=YEAR: 2002
EXTT0=
EXTT1=
EXTT2=
EXTT3=
EXTT4=
EXTT5=
EXTT6=
EXTT7=
EXTT8=
EXTT9=
EXTT10=
EXTT11=
PLAYORDER=
